<svg height="512pt" viewBox="0 0 512 512" width="512pt" xmlns="http://www.w3.org/2000/svg"><path d="m416 512h-40c-19.300781 0-35-15.699219-35-35v-60c0-8.285156 6.714844-15 15-15h80c8.285156 0 15 6.714844 15 15v60c0 19.300781-15.699219 35-35 35zm0 0" fill="#47435c"/><path d="m136 512h-40c-19.300781 0-35-15.699219-35-35v-60c0-8.285156 6.714844-15 15-15h80c8.285156 0 15 6.714844 15 15v60c0 19.300781-15.699219 35-35 35zm0 0" fill="#55506e"/><path d="m41 417c0 8.285156 6.714844 15 15 15h400c8.285156 0 15-6.714844 15-15v-120h-430zm0 0" fill="#ff5b33"/><path d="m471 55c0-30.328125-24.671875-55-55-55h-320c-30.328125 0-55 24.671875-55 55v80h430zm0 0" fill="#ff5b33"/><path d="m256 432h200c8.285156 0 15-6.714844 15-15v-120h-215zm0 0" fill="#e34100"/><path d="m416 0h-160v135h215v-80c0-30.328125-24.671875-55-55-55zm0 0" fill="#e34100"/><path d="m411 357c0 8.285156-6.714844 15-15 15s-15-6.714844-15-15 6.714844-15 15-15 15 6.714844 15 15zm0 0" fill="#f5c80e"/><path d="m131 357c0 8.285156-6.714844 15-15 15s-15-6.714844-15-15 6.714844-15 15-15 15 6.714844 15 15zm0 0" fill="#ffde2b"/><path d="m306 150h-100c-8.285156 0-15-6.714844-15-15v-40c0-19.300781 15.699219-35 35-35h60c19.300781 0 35 15.699219 35 35v40c0 8.285156-6.714844 15-15 15zm0 0" fill="#f0f9fb"/><path d="m286 60h-30v90h50c8.285156 0 15-6.714844 15-15v-40c0-19.300781-15.699219-35-35-35zm0 0" fill="#d7f0f5"/><path d="m306 372h-100c-8.285156 0-15-6.714844-15-15s6.714844-15 15-15h100c8.285156 0 15 6.714844 15 15s-6.714844 15-15 15zm0 0" fill="#55506e"/><path d="m306 342h-50v30h50c8.285156 0 15-6.714844 15-15s-6.714844-15-15-15zm0 0" fill="#47435c"/><path d="m497 207h-41c-8.285156 0-15-6.714844-15-15s6.714844-15 15-15h41c8.285156 0 15 6.714844 15 15s-6.714844 15-15 15zm0 0" fill="#c33800"/><path d="m56 207h-41c-8.285156 0-15-6.714844-15-15s6.714844-15 15-15h41c8.285156 0 15 6.714844 15 15s-6.714844 15-15 15zm0 0" fill="#e34100"/><path d="m256 120h-215v192h430v-192zm0 0" fill="#82d6ff"/><path d="m256 120h215v192h-215zm0 0" fill="#58c1ff"/></svg>